<svg width="161" height="35" fill="none" xmlns="http://www.w3.org/2000/svg"><path fill-rule="evenodd" clip-rule="evenodd" d="M74.12 16.11v9.242h-2.117v-9.27c0-2.813-1.142-4.122-3.595-4.122-2.92 0-4.447 2.169-4.447 4.31v9.082h-2.117V10.154h2.117v1.657c1.039-1.057 2.612-1.87 4.58-1.87 3.597 0 5.58 2.19 5.58 6.168zm25.054-6.17c-1.97 0-3.543.814-4.581 1.87V3.47h-2.116v21.882h2.116V16.27c0-2.142 1.527-4.31 4.448-4.31 2.453 0 3.595 1.31 3.595 4.122v9.27h2.116v-9.243c0-3.978-1.981-6.169-5.578-6.169zm31.442 7.694v.214c0 4.4-3.119 7.72-7.255 7.72-4.053 0-7.228-3.38-7.228-7.694v-.214c0-4.386 3.131-7.693 7.282-7.693 4.172 0 7.201 3.225 7.201 7.667zm-2.145.213v-.214c0-3.34-2.08-5.673-5.058-5.673-2.978 0-5.14 2.397-5.14 5.7v.214c0 3.288 2.152 5.673 5.114 5.673 2.994 0 5.084-2.344 5.084-5.7zm11.218-7.907c-1.967 0-3.541.814-4.581 1.87v-1.656h-2.116v15.198h2.116V16.27c0-2.141 1.529-4.31 4.448-4.31 2.453 0 3.597 1.31 3.597 4.123v9.269h2.116v-9.243c0-3.977-1.982-6.169-5.58-6.169zm-56.23 13.607c-2.962 0-5.112-2.386-5.112-5.673v-.214c0-3.303 2.161-5.7 5.138-5.7 2.066 0 3.698 1.123 4.506 2.925h2.271c-.973-2.963-3.528-4.918-6.777-4.918-4.15 0-7.282 3.307-7.282 7.693v.214c0 4.314 3.175 7.694 7.228 7.694 3.512 0 6.288-2.393 7.048-5.806h-2.187c-.64 2.299-2.45 3.785-4.833 3.785zM114.54 9.94c-1.968 0-3.541.814-4.581 1.871v-1.657h-2.116v15.2h2.116V16.27c0-2.141 1.528-4.31 4.448-4.31a4.74 4.74 0 011.479.213v-2.115a7.52 7.52 0 00-1.346-.118zm-74.407 6.613c-3.369-.559-3.956-1.164-3.956-2.394 0-1.315 1.365-2.198 3.329-2.198 2.055 0 3.207.752 3.538 2.366l.018.086h2.21l-.049-.294c-.446-2.678-2.466-4.151-5.69-4.151-3.2 0-5.523 1.762-5.523 4.191 0 3.181 2.68 3.895 5.662 4.396 2.813.488 3.677.883 3.677 2.556 0 1.536-1.38 2.49-3.53 2.49-2.932 0-3.835-1.552-4.065-2.916H33.5c.273 3.029 2.694 4.91 6.32 4.91 3.389 0 5.755-1.868 5.755-4.539 0-3.298-2.572-4.012-5.44-4.503zm117.891-6.398l-4.588 12.487-5.356-12.487h-2.198l6.389 15.122-1.995 5.94h2.218l7.689-21.062h-2.159zm-100.142 0l-4.588 12.487-5.356-12.487h-2.197l6.388 15.122-1.995 5.94h2.218l7.689-21.062h-2.159z" fill="#3B3D49"/><mask id="a" style="mask-type:luminance" maskUnits="userSpaceOnUse" x="0" y="0" width="27" height="35"><path fill-rule="evenodd" clip-rule="evenodd" d="M.188.168v34.35h26.011V.168H.187z" fill="#fff"/></mask><g mask="url(#a)"><path fill-rule="evenodd" clip-rule="evenodd" d="M16.487 34.518H9.89V.168h6.594l.002 34.35zm-16.3 0h6.597V17.343H.187v17.175zM19.61 17.343h6.594V.168H19.61v17.175z" fill="#FBC600"/></g></svg>